<svg height="511pt" viewBox="1 0 511.999 511" width="511pt" xmlns="http://www.w3.org/2000/svg"><path d="m0 391.964844v119.835937h89.878906v-119.835937zm311.871094-222.894532-166.269532 222.894532h-25.765624v119.835937h71.003906l198.027344-284.910156zm127.027344-168.570312-109.050782 144.300781 76.097656 57.222657 106.054688-149.996094zm0 0"/><path d="m179.453125 145.101562-76.09375 57.222657-103.058594-150.296875 73.097657-51.527344zm0 0"/><path d="m236.078125 220.898438-62.015625 82.984374-53.625-76.992187 76.992188-57.820313zm0 0"/><path d="m389.46875 391.964844v119.835937h-71.003906l-45.539063-65.609375 63.214844-91.375 27.5625 37.148438zm0 0"/><path d="m421.425781 391.964844h89.875v119.835937h-89.875zm0 0"/><path d="m179.753906.5v89.875h149.796875v-89.875zm0 0"/></svg>